<?xml version="1.0" standalone="no"?>
<!DOCTYPE svg PUBLIC "-//W3C//DTD SVG 20010904//EN"
 "http://www.w3.org/TR/2001/REC-SVG-20010904/DTD/svg10.dtd">
<svg version="1.0" xmlns="http://www.w3.org/2000/svg"
 width="363.000000pt" height="363.000000pt" viewBox="0 0 363.000000 363.000000"
 preserveAspectRatio="xMidYMid meet">
<metadata>
Created by potrace 1.11, written by Peter Selinger 2001-2013
</metadata>
<g transform="translate(0.000000,363.000000) scale(0.100000,-0.100000)"
fill="#000000" stroke="none">
<path d="M2801 3489 c-513 -305 -891 -691 -1177 -1199 -33 -58 -70 -128 -82
-156 -22 -46 -29 -52 -75 -67 -43 -14 -137 -38 -207 -52 -8 -2 -35 -8 -59 -15
-23 -6 -45 -9 -47 -7 -3 3 9 32 26 66 17 33 34 77 37 96 9 55 -21 45 -98 -33
l-66 -68 -187 1 c-173 1 -186 0 -186 -17 0 -17 13 -18 176 -18 l176 0 -21 -32
c-40 -65 -91 -177 -91 -202 0 -36 21 -33 67 10 75 69 97 72 225 25 29 -11 72
-25 94 -30 l42 -11 -16 -43 c-10 -26 -17 -79 -17 -137 -2 -87 -5 -101 -40
-175 -20 -44 -50 -107 -65 -140 -15 -33 -49 -105 -75 -160 -65 -138 -181 -414
-189 -450 -4 -21 4 -12 27 30 34 62 139 217 143 212 2 -1 -26 -75 -62 -162
-36 -88 -97 -248 -135 -355 -39 -107 -86 -237 -105 -288 -49 -134 -45 -148 16
-42 17 30 38 69 46 85 8 17 21 39 27 51 7 11 64 111 127 222 l115 202 53 0
c45 0 52 3 52 20 0 16 -7 20 -35 20 -19 0 -35 4 -35 10 0 32 377 550 400 550
16 0 70 -35 75 -49 5 -13 -31 -91 -82 -179 -47 -80 -24 -159 37 -127 103 53
359 468 355 575 0 26 -41 22 -74 -6 -30 -25 -34 -26 -49 -10 -15 15 -12 20 38
71 30 30 58 55 62 55 14 0 109 -135 139 -197 30 -62 30 -63 14 -115 -30 -104
-9 -117 65 -38 39 41 141 197 152 232 6 17 48 -14 48 -35 0 -9 -23 -57 -50
-107 -70 -123 -93 -178 -86 -205 15 -61 93 -37 194 60 l77 73 1 -48 c0 -46 24
-100 44 -100 6 0 10 54 10 135 0 74 -2 135 -5 135 -2 0 -33 -27 -67 -60 -35
-33 -67 -60 -71 -60 -12 0 1 38 29 85 29 50 52 101 56 123 2 12 -9 20 -46 29
-58 15 -64 19 -48 41 29 42 43 74 37 92 -12 38 -101 46 -138 12 -10 -9 -30
-40 -43 -68 -13 -29 -31 -57 -39 -64 -18 -15 -24 -4 -69 148 l-37 122 101 135
c280 374 477 776 590 1200 30 110 63 264 74 340 3 22 9 57 12 78 3 20 4 37 2
37 -1 -1 -41 -23 -87 -51z"/>
</g>
</svg>
