<?xml version="1.0" standalone="no"?>
<!DOCTYPE svg PUBLIC "-//W3C//DTD SVG 20010904//EN"
 "http://www.w3.org/TR/2001/REC-SVG-20010904/DTD/svg10.dtd">
<svg version="1.0" xmlns="http://www.w3.org/2000/svg"
 width="400.000000pt" height="400.000000pt" viewBox="0 0 400.000000 400.000000"
 preserveAspectRatio="xMidYMid meet">
<metadata>
Created by potrace 1.11, written by Peter Selinger 2001-2013
</metadata>
<g transform="translate(0.000000,400.000000) scale(0.100000,-0.100000)"
fill="#000000" stroke="none">
<path d="M1940 3813 c-25 -9 -148 -66 -470 -221 -182 -87 -359 -171 -435 -207
-38 -18 -155 -74 -259 -124 -104 -50 -190 -91 -193 -91 -2 0 -20 -12 -38 -26
-38 -29 -84 -101 -91 -142 -3 -15 -7 -35 -10 -44 -3 -10 -7 -28 -10 -40 -4
-23 -10 -53 -18 -85 -34 -143 -138 -597 -142 -623 -3 -19 -10 -42 -14 -50 -4
-8 -10 -33 -14 -55 -3 -22 -24 -116 -46 -210 -23 -93 -43 -179 -45 -190 -1
-11 -9 -47 -17 -80 -16 -64 -14 -111 4 -160 9 -24 165 -236 188 -255 3 -3 51
-61 105 -130 54 -69 104 -130 109 -137 15 -16 17 -19 131 -163 55 -69 102
-127 105 -130 3 -3 51 -61 105 -130 55 -69 102 -127 105 -130 3 -3 32 -38 64
-78 33 -41 79 -85 105 -100 l46 -27 795 0 795 0 44 25 c47 27 97 84 332 380
111 139 137 172 212 264 32 39 64 78 70 86 28 35 173 216 184 230 16 20 80
100 101 125 131 157 154 219 124 335 -14 57 -49 207 -56 240 -2 14 -14 66 -26
115 -39 170 -49 210 -69 295 -11 47 -22 96 -25 110 -7 38 -73 323 -97 420 -12
47 -23 99 -26 115 -10 69 -35 136 -66 176 -34 44 -70 65 -307 177 -69 33 -174
83 -235 112 -60 29 -150 72 -200 95 -117 55 -273 130 -465 222 -85 41 -175 83
-200 93 -43 17 -119 23 -150 13z"/>
</g>
</svg>
